<?xml version="1.0" standalone="no"?>
<!DOCTYPE svg PUBLIC "-//W3C//DTD SVG 20010904//EN"
 "http://www.w3.org/TR/2001/REC-SVG-20010904/DTD/svg10.dtd">
<svg version="1.0" xmlns="http://www.w3.org/2000/svg"
 width="1016.000000pt" height="1016.000000pt" viewBox="0 0 1016.000000 1016.000000"
 preserveAspectRatio="xMidYMid meet">

<g transform="translate(0.000000,1016.000000) scale(0.100000,-0.100000)"
fill="#000000" stroke="none">
<path d="M0 5080 l0 -5080 5080 0 5080 0 0 5080 0 5080 -5080 0 -5080 0 0
-5080z m4272 1580 c15 0 28 -5 28 -11 0 -7 10 -9 25 -5 14 4 25 2 25 -4 0 -14
37 -13 42 1 3 8 10 6 21 -5 11 -11 24 -15 37 -11 12 4 20 2 20 -5 0 -7 7 -10
15 -6 8 3 15 1 15 -5 0 -5 11 -7 25 -3 15 4 25 2 25 -5 0 -6 7 -8 15 -5 8 4
15 1 15 -6 0 -7 7 -10 16 -6 9 4 13 2 8 -5 -4 -8 1 -9 15 -4 13 4 21 2 21 -5
0 -6 5 -8 10 -5 6 3 20 3 31 0 17 -6 19 -9 8 -17 -10 -7 -8 -8 9 -5 13 3 22 0
22 -6 0 -7 4 -6 10 3 8 12 10 12 16 -3 3 -9 10 -14 15 -11 5 3 9 0 9 -6 0 -6
5 -8 10 -5 6 3 10 1 10 -5 0 -6 5 -8 10 -5 6 3 10 2 10 -3 0 -6 8 -9 18 -8 9
0 16 -5 14 -12 -2 -9 4 -11 18 -7 15 5 22 1 29 -17 6 -13 10 -17 10 -10 1 7 6
10 11 7 6 -4 7 -11 4 -17 -5 -8 -1 -9 11 -5 20 8 48 -10 38 -26 -4 -6 0 -8 11
-4 11 4 25 -2 41 -17 13 -13 26 -22 28 -20 2 3 10 -3 18 -13 12 -15 12 -16 -1
-8 -13 8 -13 7 -1 -9 8 -9 17 -13 20 -9 3 4 13 9 21 11 8 2 23 11 33 19 9 9
26 21 36 27 10 6 47 28 81 49 34 20 66 35 71 32 5 -4 9 -1 9 5 0 6 11 15 25
22 13 6 22 14 20 19 -3 4 0 11 6 15 8 4 9 3 5 -4 -9 -15 6 -16 20 -2 6 6 25
12 42 13 18 1 32 7 32 13 0 13 57 27 71 18 5 -3 9 0 9 6 0 6 3 9 8 7 7 -5 33
18 27 24 -2 2 19 4 46 4 27 0 49 4 49 9 0 4 6 6 14 3 8 -3 16 -1 18 5 2 6 32
11 66 12 34 0 62 4 62 9 0 4 11 5 25 1 17 -4 25 -2 25 7 0 11 3 11 10 -1 5 -8
10 -10 10 -5 0 6 61 10 165 10 91 0 165 -4 165 -9 0 -5 16 -6 35 -3 19 3 35 2
35 -4 0 -5 17 -7 40 -3 27 4 40 3 40 -5 0 -7 9 -9 25 -5 15 4 25 2 25 -5 0 -6
7 -8 15 -5 8 4 15 1 15 -5 0 -7 9 -9 25 -5 14 3 25 2 25 -4 0 -6 8 -8 19 -5
10 2 24 -2 32 -10 8 -7 20 -12 27 -9 6 2 12 -1 12 -8 0 -6 5 -8 11 -5 6 4 17
-1 25 -11 9 -11 13 -13 9 -6 -3 6 -1 12 5 12 6 0 13 -7 17 -16 3 -8 12 -13 20
-10 20 8 103 -35 103 -53 0 -13 2 -13 9 -2 7 11 13 10 35 -4 14 -9 24 -21 21
-25 -3 -5 -1 -11 5 -15 5 -3 10 -1 10 5 0 8 6 8 20 0 11 -6 18 -15 15 -20 -3
-5 -1 -11 5 -15 5 -3 10 -1 10 6 0 8 7 7 23 -3 12 -9 22 -20 22 -26 0 -6 3
-14 8 -18 4 -4 7 -2 7 5 0 7 5 9 10 6 6 -4 8 -10 5 -15 -3 -4 2 -13 10 -20 13
-11 14 -10 8 6 -6 16 -4 17 9 7 8 -7 18 -11 22 -8 3 3 2 0 -4 -7 -6 -8 -5 -16
3 -26 9 -11 11 -58 8 -169 -2 -84 0 -153 4 -153 4 0 41 32 83 71 75 70 232
186 284 209 l26 12 -46 36 c-26 19 -56 46 -67 58 -22 25 -72 49 -95 45 -8 -2
-52 -28 -98 -58 -82 -54 -124 -65 -67 -18 38 32 135 92 155 97 8 2 23 13 32
25 11 13 27 20 38 18 11 -2 20 0 20 4 0 11 99 56 106 48 4 -4 12 -1 18 7 13
16 75 38 87 30 5 -3 9 0 9 6 0 7 6 10 14 7 8 -3 16 -1 18 5 2 6 18 11 36 12
18 0 32 5 32 10 0 4 9 6 20 3 10 -3 21 0 23 6 1 5 31 11 65 11 34 0 62 4 62 9
0 4 11 5 25 1 14 -3 25 -2 25 2 0 5 81 9 180 9 99 0 180 -4 180 -9 0 -5 14 -6
30 -3 17 4 30 2 30 -3 0 -6 16 -8 40 -4 24 4 40 3 40 -3 0 -6 11 -8 25 -5 14
2 25 0 25 -7 0 -5 7 -8 15 -5 8 4 15 2 15 -2 0 -5 17 -9 37 -10 20 0 39 -6 41
-12 2 -7 8 -10 13 -6 5 3 9 0 9 -6 0 -7 7 -10 15 -6 8 3 15 1 15 -5 0 -6 5 -7
10 -4 15 10 51 -5 44 -17 -5 -7 -1 -9 9 -5 10 3 17 2 17 -3 0 -5 7 -7 15 -4 8
4 15 1 15 -6 0 -6 5 -8 10 -5 6 3 10 2 10 -4 0 -7 8 -7 26 -1 14 6 23 6 20 2
-3 -5 8 -16 25 -26 16 -9 29 -22 29 -27 0 -6 5 -7 10 -4 14 9 42 -14 34 -27
-4 -6 1 -8 13 -4 13 4 25 0 34 -11 12 -14 12 -16 0 -8 -10 5 -12 4 -7 -4 4 -6
16 -9 25 -6 11 3 24 -2 32 -12 12 -15 12 -16 -3 -10 -25 9 -22 0 3 -14 15 -8
19 -8 15 0 -4 6 -3 11 2 11 11 0 30 -21 31 -35 1 -5 9 -10 19 -10 9 -1 16 -6
15 -12 -1 -6 4 -17 12 -23 11 -9 15 -9 15 -1 0 6 5 11 11 11 6 0 9 -6 6 -14
-3 -8 33 -51 90 -107 53 -52 93 -88 89 -81 -4 6 -3 12 2 12 6 0 12 -7 16 -15
3 -8 1 -15 -5 -15 -5 0 8 -23 30 -50 44 -56 127 -190 162 -262 13 -27 29 -48
36 -48 7 0 13 -5 13 -11 0 -5 -5 -7 -12 -3 -8 5 -9 2 -3 -12 4 -10 19 -54 34
-96 14 -43 31 -78 38 -78 7 0 13 -8 13 -17 0 -16 -2 -16 -11 -3 -8 11 -9 8 -4
-14 3 -15 9 -41 12 -57 6 -31 33 -41 33 -12 0 9 2 14 5 11 3 -3 3 -24 -1 -47
-5 -29 -10 -38 -15 -29 -5 7 -6 -9 -1 -37 9 -65 9 -325 0 -390 -5 -34 -5 -45
2 -35 8 13 10 13 10 -2 0 -9 3 -23 6 -31 4 -12 0 -14 -14 -10 -16 4 -21 -2
-26 -34 -4 -21 -9 -47 -12 -58 -4 -16 -3 -17 5 -5 9 12 11 11 11 -7 0 -31 -10
-53 -25 -53 -7 0 -17 -18 -23 -40 -5 -22 -6 -37 -1 -34 5 3 9 0 9 -5 0 -6 -6
-11 -14 -11 -7 0 -16 -8 -19 -17 -2 -10 -8 -27 -13 -37 -5 -14 -4 -17 4 -12
14 8 15 5 6 -19 -5 -11 -9 -13 -14 -6 -4 7 -11 1 -19 -15 -11 -25 -10 -26 4
-14 13 11 15 10 9 -4 -3 -9 -14 -16 -23 -16 -14 0 -14 -2 -1 -10 13 -9 13 -10
0 -10 -8 0 -25 -19 -38 -43 -20 -36 -21 -39 -3 -17 22 27 28 21 11 -11 -6 -10
-18 -19 -28 -19 -15 0 -15 -2 -2 -10 14 -9 13 -11 -10 -14 -5 0 -17 -12 -27
-26 l-17 -25 22 19 c28 24 29 6 2 -19 -11 -10 -20 -15 -20 -11 0 4 -5 4 -11 0
-8 -4 -7 -9 2 -15 11 -7 10 -12 -5 -26 -18 -17 -19 -17 -12 1 5 16 4 17 -9 6
-8 -7 -15 -18 -14 -24 1 -6 1 -18 0 -26 -1 -12 -3 -12 -9 -2 -7 9 -13 8 -27
-8 -18 -20 -18 -21 -1 -14 14 5 17 3 14 -7 -3 -8 -12 -14 -21 -14 -22 0 -88
-65 -80 -79 3 -6 3 -8 -2 -4 -4 4 -37 -19 -74 -51 -76 -65 -176 -137 -238
-171 l-42 -23 -91 57 c-136 87 -127 85 -271 43 -68 -20 -158 -42 -199 -49
-106 -17 -335 -15 -446 5 -256 47 -494 168 -693 353 l-64 59 7 -69 c6 -58 14
-80 46 -129 42 -63 46 -72 30 -82 -15 -9 -12 -35 4 -35 8 0 17 -7 20 -16 4
-10 2 -13 -7 -8 -7 5 -6 1 3 -10 8 -10 15 -25 16 -35 2 -14 1 -14 -10 2 -7 9
-19 17 -26 17 -6 0 -25 10 -42 21 -24 17 -32 19 -41 9 -9 -10 -9 -11 1 -6 21
12 13 -9 -9 -23 -19 -11 -21 -11 -16 3 4 9 4 16 1 16 -2 0 -9 -12 -15 -27 -8
-22 -12 -24 -19 -13 -9 14 -11 13 -14 -9 -2 -15 -14 -23 -20 -13 -3 5 3 17 14
27 18 17 16 19 -68 60 -150 72 -148 72 -239 27 -93 -47 -234 -93 -358 -118
-134 -26 -358 -24 -497 4 -259 53 -476 164 -650 331 l-78 74 0 -42 c0 -33 8
-53 38 -94 55 -75 76 -134 43 -122 -11 3 -10 0 3 -10 17 -13 18 -15 3 -15 -9
0 -17 -5 -17 -11 0 -5 5 -7 12 -3 8 5 9 2 5 -9 -5 -13 -1 -17 14 -17 11 0 17
-5 14 -10 -4 -6 -11 -8 -16 -5 -5 3 -6 -1 -3 -9 3 -9 11 -16 17 -16 6 0 7 -3
4 -7 -4 -3 -1 -13 6 -21 11 -13 9 -14 -13 -1 -80 46 -105 71 -110 107 -5 36
-7 37 -85 64 -44 15 -93 28 -109 28 -15 0 -54 -16 -86 -35 -143 -87 -306 -149
-475 -181 -122 -24 -348 -24 -473 0 -255 47 -492 165 -675 336 l-77 72 -81
-76 c-250 -232 -556 -350 -909 -350 -281 0 -519 73 -758 232 -45 30 -85 59
-88 63 -11 19 -24 8 -14 -11 11 -21 -1 -57 -23 -72 -6 -4 -11 -23 -10 -42 1
-21 -4 -36 -10 -36 -7 -1 -6 -6 3 -13 21 -17 43 -68 33 -78 -14 -14 -125 65
-227 162 -82 78 -155 163 -228 269 -12 17 -16 19 -11 6 10 -29 -14 -11 -32 25
-12 22 -13 29 -3 30 7 0 4 4 -7 9 -11 5 -15 9 -8 9 16 1 -68 180 -84 181 -7 0
-13 5 -13 11 0 5 6 7 13 4 6 -4 4 0 -5 8 -18 15 -25 33 -9 23 5 -4 7 3 4 15
-4 16 -8 17 -14 7 -5 -7 -9 -10 -9 -6 0 3 -3 14 -7 24 -4 12 -3 15 5 10 7 -4
12 -2 12 4 0 6 -7 13 -15 16 -8 4 -15 10 -15 16 0 5 5 6 12 2 7 -5 9 -2 5 9
-3 8 -9 32 -13 51 -4 22 -12 36 -21 36 -11 0 -14 8 -11 30 3 16 1 30 -4 30 -4
0 -8 12 -7 28 0 23 1 24 8 7 4 -11 6 30 3 90 -2 61 -8 115 -13 121 -11 14 -9
154 3 154 5 0 6 20 2 45 -3 25 -2 45 3 45 5 0 7 16 5 35 -3 21 0 35 7 35 7 0
8 8 1 25 -8 20 -7 23 7 18 11 -4 14 -3 9 5 -4 7 -3 12 3 12 6 0 8 6 5 14 -7
19 14 96 27 96 6 0 8 4 5 9 -8 12 14 71 26 71 5 0 6 5 3 10 -3 6 -2 10 4 10 6
0 8 7 5 15 -4 8 -1 15 6 15 6 0 8 5 5 10 -3 6 -1 10 4 10 6 0 10 3 10 8 -4 23
3 44 21 62 11 11 15 20 10 20 -6 0 -10 5 -10 11 0 5 4 8 9 4 8 -5 24 25 26 48
0 5 10 14 22 20 21 11 23 15 23 36 0 6 11 22 25 37 13 14 22 30 19 35 -3 5 2
6 10 3 9 -4 16 -1 16 6 0 7 12 29 27 49 16 20 27 40 25 44 -1 5 1 7 5 4 10 -5
43 29 35 37 -3 3 -1 6 4 6 5 0 36 25 69 55 78 71 251 196 276 198 10 1 19 5
19 9 0 12 161 90 175 84 7 -2 15 1 18 8 5 14 76 38 89 30 4 -3 8 0 8 6 0 7 6
10 14 7 8 -3 16 -1 19 6 2 6 20 11 40 11 20 0 37 4 37 9 0 5 6 7 14 4 8 -3 16
-1 18 5 2 6 31 11 66 12 34 0 62 4 62 9 0 4 11 5 25 1 16 -4 25 -2 25 5 0 8
23 10 80 5 57 -5 80 -4 80 5 0 6 15 11 35 11 20 0 35 -5 35 -11 0 -8 17 -10
55 -6 36 4 55 2 55 -5 0 -7 15 -9 40 -5 22 3 40 1 40 -4 0 -5 18 -6 40 -3 25
4 40 3 40 -4 0 -5 9 -8 20 -5 12 3 20 0 20 -7 0 -7 8 -9 20 -5 11 3 20 2 20
-3 0 -5 11 -7 25 -4 14 2 25 0 25 -7 0 -5 7 -8 15 -5 8 4 15 1 15 -5 0 -6 7
-8 15 -5 8 4 15 1 15 -6 0 -6 5 -8 10 -5 6 3 10 2 10 -4 0 -6 7 -8 15 -4 9 3
22 -2 29 -12 7 -10 18 -15 24 -11 7 4 12 3 12 -3 0 -6 7 -8 15 -5 8 4 15 1 15
-6 0 -6 5 -8 10 -5 6 3 10 0 10 -7 0 -9 3 -9 10 2 8 13 10 12 10 -3 0 -10 4
-15 10 -12 13 8 70 -22 70 -37 0 -6 3 -9 6 -5 4 3 14 -2 23 -11 9 -10 12 -11
6 -3 -7 11 1 9 25 -6 19 -11 34 -26 32 -33 -2 -8 3 -10 13 -7 8 4 15 2 15 -3
0 -6 5 -9 12 -7 7 1 13 -4 14 -10 1 -7 2 -16 3 -20 0 -4 8 2 17 13 8 10 13 14
10 7 -4 -6 2 -16 11 -22 13 -8 14 -10 3 -11 -10 0 -11 -3 -2 -12 8 -8 15 -8
28 3 12 9 15 10 10 2 -4 -7 -3 -13 3 -13 5 0 13 5 16 10 4 6 11 8 16 5 5 -4 9
1 9 9 0 9 4 16 9 16 5 0 23 12 40 26 19 16 31 21 31 13 0 -8 7 -3 16 9 9 13
22 21 29 18 7 -2 16 2 19 10 3 9 10 13 15 10 5 -3 12 1 15 10 3 9 11 14 18 12
6 -2 20 3 29 11 42 38 46 40 58 28 8 -8 11 -8 11 2 0 7 5 9 10 6 6 -3 10 -1
10 5 0 7 6 10 13 7 6 -2 17 3 23 11 6 8 25 15 42 16 18 0 32 5 32 9 0 5 5 5
10 2 6 -3 10 -1 10 5 0 7 6 10 12 8 7 -3 19 2 27 10 8 7 26 12 41 10 15 -2 32
2 40 10 8 9 23 12 41 8 18 -3 29 -1 29 5 0 7 14 8 40 4 24 -4 40 -3 40 3 0 6
17 8 40 5 22 -3 40 -2 40 3 0 5 61 7 135 6 125 -4 135 -3 135 14 0 14 3 15 12
6 7 -7 25 -12 40 -12z m1741 13 c-7 -2 -19 -2 -25 0 -7 3 -2 5 12 5 14 0 19
-2 13 -5z m1432 -383 c3 -6 -1 -7 -9 -4 -18 7 -21 14 -7 14 6 0 13 -4 16 -10z
m1675 -6 c0 -8 -19 -13 -24 -6 -3 5 1 9 9 9 8 0 15 -2 15 -3z m63 -71 c16 -18
39 -33 51 -34 11 0 15 -3 8 -6 -10 -4 -10 -8 -1 -19 6 -8 7 -14 2 -14 -11 0
-123 113 -123 124 0 11 27 -11 63 -51z m142 -144 c-4 -5 6 -25 21 -44 14 -19
22 -35 18 -35 -15 1 -66 79 -59 90 4 6 11 8 16 4 5 -3 7 -10 4 -15z m60 -99
c3 -5 1 -10 -4 -10 -6 0 -11 5 -11 10 0 6 2 10 4 10 3 0 8 -4 11 -10z m31 -57
c-4 -4 -11 -1 -16 7 -16 25 -11 35 7 17 9 -9 13 -20 9 -24z m19 -23 c3 -5 1
-10 -4 -10 -6 0 -11 5 -11 10 0 6 2 10 4 10 3 0 8 -4 11 -10z m115 -245 c0 -8
-2 -15 -4 -15 -2 0 -6 7 -10 15 -3 8 -1 15 4 15 6 0 10 -7 10 -15z m30 -90 c0
-8 -2 -15 -4 -15 -2 0 -6 7 -10 15 -3 8 -1 15 4 15 6 0 10 -7 10 -15z m57
-472 c-2 -32 -3 -8 -3 52 0 61 1 87 3 58 2 -29 2 -78 0 -110z m-9070 -85 c-3
-8 -6 -5 -6 6 -1 11 2 17 5 13 3 -3 4 -12 1 -19z m8964 -421 c-10 -9 -11 -8
-5 6 3 10 9 15 12 12 3 -3 0 -11 -7 -18z m-8841 -47 c0 -5 -2 -10 -4 -10 -3 0
-8 5 -11 10 -3 6 -1 10 4 10 6 0 11 -4 11 -10z m40 -81 c0 -6 -4 -7 -10 -4 -5
3 -10 11 -10 16 0 6 5 7 10 4 6 -3 10 -11 10 -16z m90 -149 c0 -5 -2 -10 -4
-10 -3 0 -8 5 -11 10 -3 6 -1 10 4 10 6 0 11 -4 11 -10z m20 -30 c0 -5 -2 -10
-4 -10 -3 0 -8 5 -11 10 -3 6 -1 10 4 10 6 0 11 -4 11 -10z m30 -40 c10 -19
10 -20 -9 -8 -22 13 -28 28 -11 28 5 0 14 -9 20 -20z m2337 -122 c19 -28 22
-41 15 -55 -12 -21 -13 -113 -1 -113 4 0 9 -6 12 -14 11 -28 -21 -24 -67 7
l-46 32 1 125 0 125 30 -35 c17 -19 42 -52 56 -72z m-2257 25 c30 -36 76 -84
103 -106 26 -22 47 -45 47 -51 0 -12 -147 130 -192 187 -52 64 -16 39 42 -30z
m8300 -14 c-7 -11 -14 -18 -17 -15 -3 3 0 12 7 21 18 21 23 19 10 -6z m-88
-89 c-12 -12 -22 -25 -22 -30 0 -6 -7 -10 -15 -10 -9 0 -18 -7 -21 -15 -4 -8
-12 -15 -20 -15 -7 0 -18 -9 -24 -20 -10 -19 -35 -29 -28 -12 5 13 132 121
142 121 6 1 0 -8 -12 -19z m-7993 -100 c13 -11 22 -22 20 -25 -3 -2 -22 12
-44 31 -22 19 -31 30 -20 25 11 -6 31 -20 44 -31z m1953 -2 c-6 -6 -15 -8 -19
-4 -4 4 -1 11 7 16 19 12 27 3 12 -12z m2064 -49 c9 -15 -50 17 -66 35 -10 12
-16 14 -26 5 -8 -6 -14 -8 -14 -5 0 4 -15 -2 -32 -14 -28 -19 -27 -17 6 13
l40 35 42 -29 c24 -16 46 -34 50 -40z m1934 29 c0 -6 -6 -5 -15 2 -8 7 -15 14
-15 16 0 2 7 1 15 -2 8 -4 15 -11 15 -16z m-3950 2 c0 -5 -2 -10 -4 -10 -3 0
-8 5 -11 10 -3 6 -1 10 4 10 6 0 11 -4 11 -10z m5850 6 c0 -3 -4 -8 -10 -11
-5 -3 -10 -1 -10 4 0 6 5 11 10 11 6 0 10 -2 10 -4z m-7800 -26 c0 -5 -2 -10
-4 -10 -3 0 -8 5 -11 10 -3 6 -1 10 4 10 6 0 11 -4 11 -10z m1830 -5 c-7 -9
-15 -13 -19 -10 -3 3 1 10 9 15 21 14 24 12 10 -5z m190 -28 c0 -5 -13 1 -30
13 -16 12 -30 24 -30 26 0 3 14 -3 30 -13 17 -9 30 -21 30 -26z m15 33 c3 -5
2 -10 -4 -10 -5 0 -13 5 -16 10 -3 6 -2 10 4 10 5 0 13 -4 16 -10z m3925 -22
c0 -10 -36 7 -45 22 -4 6 5 5 19 -2 14 -6 26 -15 26 -20z m1800 17 c-7 -9 -15
-13 -19 -10 -3 3 1 10 9 15 21 14 24 12 10 -5z m-3975 -15 c-3 -5 -16 -15 -28
-21 -21 -10 -21 -9 2 10 25 23 36 27 26 11z m1960 1 c3 -5 2 -12 -3 -15 -5 -3
-9 1 -9 9 0 17 3 19 12 6z m-3945 -5 c0 -3 -4 -8 -10 -11 -5 -3 -10 -1 -10 4
0 6 5 11 10 11 6 0 10 -2 10 -4z m2290 -64 c8 -8 -7 -3 -35 13 -27 15 -57 34
-65 43 -8 8 8 3 35 -13 28 -15 57 -34 65 -43z m3640 64 c0 -3 -4 -8 -10 -11
-5 -3 -10 -1 -10 4 0 6 5 11 10 11 6 0 10 -2 10 -4z m-7660 -21 c7 -8 8 -15 2
-15 -5 0 -15 7 -22 15 -7 8 -8 15 -2 15 5 0 15 -7 22 -15z m5920 5 c0 -5 -2
-10 -4 -10 -3 0 -8 5 -11 10 -3 6 -1 10 4 10 6 0 11 -4 11 -10z m-4240 -20
c-14 -11 -29 -20 -35 -20 -5 0 1 9 15 20 14 11 30 20 35 20 6 0 -1 -9 -15 -20z
m3970 16 c0 -3 -4 -8 -10 -11 -5 -3 -10 -1 -10 4 0 6 5 11 10 11 6 0 10 -2 10
-4z m-3617 -31 c20 -10 37 -22 37 -27 0 -10 -45 13 -75 37 -23 19 -14 17 38
-10z m1624 3 c-3 -8 -6 -5 -6 6 -1 11 2 17 5 13 3 -3 4 -12 1 -19z m3950 0
c-3 -8 -6 -5 -6 6 -1 11 2 17 5 13 3 -3 4 -12 1 -19z m-1987 7 c0 -2 -15 -12
-32 -20 l-33 -16 24 21 c22 19 41 26 41 15z m-3990 -20 c0 -2 -10 -10 -22 -16
-21 -11 -22 -11 -9 4 13 16 31 23 31 12z m4391 -11 c17 -8 29 -18 26 -20 -6
-6 -67 23 -67 31 0 8 10 6 41 -11z m1539 6 c0 -5 -6 -10 -14 -10 -8 0 -16 -5
-18 -11 -2 -6 -13 -9 -23 -7 -17 3 -16 6 10 20 37 19 45 21 45 8z m-3966 -8
c3 -5 0 -9 -7 -9 -7 0 -21 -4 -32 -8 -20 -7 -20 -6 -1 9 22 18 32 20 40 8z
m-3479 -12 c3 -5 2 -10 -4 -10 -5 0 -13 5 -16 10 -3 6 -2 10 4 10 5 0 13 -4
16 -10z m5430 0 c-3 -5 -11 -10 -16 -10 -6 0 -7 5 -4 10 3 6 11 10 16 10 6 0
7 -4 4 -10z m-5355 -36 c25 -13 34 -22 20 -18 -45 12 -101 45 -72 44 4 -1 27
-12 52 -26z m3326 11 c-11 -8 -25 -15 -30 -15 -6 0 -2 7 8 15 11 8 25 15 30
15 6 0 2 -7 -8 -15z m2585 -1 c17 -8 29 -18 26 -20 -6 -6 -67 23 -67 31 0 8
10 6 41 -11z m-3946 -4 c3 -5 1 -10 -4 -10 -6 0 -11 5 -11 10 0 6 2 10 4 10 3
0 8 -4 11 -10z m5310 -12 c5 -4 -6 -6 -24 -6 -31 1 -32 2 -16 14 10 8 21 11
24 7 3 -4 10 -11 16 -15z m-5955 2 c-20 -13 -33 -13 -25 0 3 6 14 10 23 10 15
0 15 -2 2 -10z m2645 0 c3 -5 1 -10 -4 -10 -6 0 -11 5 -11 10 0 6 2 10 4 10 3
0 8 -4 11 -10z m1315 6 c0 -3 -4 -8 -10 -11 -5 -3 -10 -1 -10 4 0 6 5 11 10
11 6 0 10 -2 10 -4z m-2023 -22 c-16 -9 -31 -13 -34 -10 -3 3 5 10 18 15 37
15 47 12 16 -5z m2728 -4 c3 -5 2 -10 -4 -10 -5 0 -13 5 -16 10 -3 6 -2 10 4
10 5 0 13 -4 16 -10z m-4735 -10 c-8 -5 -22 -10 -30 -10 -13 0 -13 1 0 10 8 5
22 10 30 10 13 0 13 -1 0 -10z m810 0 c12 -8 9 -10 -12 -10 -16 0 -28 5 -28
10 0 13 20 13 40 0z m1975 0 c3 -5 1 -10 -4 -10 -6 0 -11 5 -11 10 0 6 2 10 4
10 3 0 8 -4 11 -10z m1155 0 c0 -5 -5 -10 -11 -10 -5 0 -7 5 -4 10 3 6 8 10
11 10 2 0 4 -4 4 -10z m1997 -5 c0 -8 -4 -15 -9 -15 -4 0 -8 7 -8 15 0 8 4 15
8 15 5 0 9 -7 9 -15z m-27 1 c0 -3 -4 -8 -10 -11 -5 -3 -10 -1 -10 4 0 6 5 11
10 11 6 0 10 -2 10 -4z m-6980 -32 c0 -2 -7 -4 -15 -4 -8 0 -15 4 -15 10 0 5
7 7 15 4 8 -4 15 -8 15 -10z m960 -4 c-8 -5 -17 -7 -19 -4 -3 3 1 9 9 14 8 5
17 7 19 4 3 -3 -1 -9 -9 -14z m1020 4 c0 -2 -7 -4 -15 -4 -8 0 -15 4 -15 10 0
5 7 7 15 4 8 -4 15 -8 15 -10z m3939 7 c7 -5 9 -11 4 -14 -4 -3 -17 1 -28 9
-21 16 0 20 24 5z m976 -10 c-3 -6 -11 -8 -17 -5 -6 4 -5 9 3 15 16 10 23 4
14 -10z m-3951 1 c3 -5 -1 -9 -9 -9 -8 0 -15 4 -15 9 0 4 4 8 9 8 6 0 12 -4
15 -8z m1006 -2 c0 -5 -2 -10 -4 -10 -3 0 -8 5 -11 10 -3 6 -1 10 4 10 6 0 11
-4 11 -10z m40 -4 c0 -2 -7 -7 -16 -10 -8 -3 -12 -2 -9 4 6 10 25 14 25 6z
m-1150 -16 c0 -5 -8 -10 -17 -10 -15 0 -16 2 -3 10 19 12 20 12 20 0z m1220
-6 c0 -2 -7 -4 -15 -4 -8 0 -15 4 -15 10 0 5 7 7 15 4 8 -4 15 -8 15 -10z
m760 7 c0 -5 -9 -11 -20 -14 -11 -3 -20 -1 -20 3 0 5 8 11 18 13 9 3 18 5 20
6 1 0 2 -3 2 -8z m-4713 -7 c-3 -3 -12 -4 -19 -1 -8 3 -5 6 6 6 11 1 17 -2 13
-5z m1980 0 c-3 -3 -12 -4 -19 -1 -8 3 -5 6 6 6 11 1 17 -2 13 -5z m717 -9 c3
-8 1 -15 -4 -15 -6 0 -10 7 -10 15 0 8 2 15 4 15 2 0 6 -7 10 -15z m3233 9
c-3 -3 -12 -4 -19 -1 -8 3 -5 6 6 6 11 1 17 -2 13 -5z m750 0 c-3 -3 -12 -4
-19 -1 -8 3 -5 6 6 6 11 1 17 -2 13 -5z m-6580 -20 c-3 -3 -12 -4 -19 -1 -8 3
-5 6 6 6 11 1 17 -2 13 -5z m550 0 c-3 -3 -12 -4 -19 -1 -8 3 -5 6 6 6 11 1
17 -2 13 -5z m1430 0 c-3 -3 -12 -4 -19 -1 -8 3 -5 6 6 6 11 1 17 -2 13 -5z
m546 -1 c-7 -2 -19 -2 -25 0 -7 3 -2 5 12 5 14 0 19 -2 13 -5z m1424 1 c-3 -3
-12 -4 -19 -1 -8 3 -5 6 6 6 11 1 17 -2 13 -5z m1986 -1 c-7 -2 -19 -2 -25 0
-7 3 -2 5 12 5 14 0 19 -2 13 -5z m544 1 c-3 -3 -12 -4 -19 -1 -8 3 -5 6 6 6
11 1 17 -2 13 -5z m-6414 -11 c-7 -2 -19 -2 -25 0 -7 3 -2 5 12 5 14 0 19 -2
13 -5z m367 -3 c0 -6 -23 -9 -52 -9 l-53 2 40 7 c60 11 65 11 65 0z m57 4 c-3
-3 -12 -4 -19 -1 -8 3 -5 6 6 6 11 1 17 -2 13 -5z m1556 -1 c-7 -2 -19 -2 -25
0 -7 3 -2 5 12 5 14 0 19 -2 13 -5z m146 -9 c2 -2 -21 -4 -52 -4 -33 0 -57 4
-57 10 0 10 98 4 109 -6z m211 6 c0 -6 -28 -9 -67 -8 l-68 1 50 7 c78 11 85
11 85 0z m57 4 c-3 -3 -12 -4 -19 -1 -8 3 -5 6 6 6 11 1 17 -2 13 -5z m1560 0
c-3 -3 -12 -4 -19 -1 -8 3 -5 6 6 6 11 1 17 -2 13 -5z m104 -4 c16 0 29 -4 29
-9 0 -5 -8 -8 -17 -6 -10 2 -30 4 -45 4 -16 1 -28 6 -28 12 0 6 7 8 16 5 9 -3
29 -6 45 -6z m269 0 c0 -6 -25 -9 -57 -9 -56 2 -56 2 -18 9 61 11 75 11 75 0z
m47 4 c-3 -3 -12 -4 -19 -1 -8 3 -5 6 6 6 11 1 17 -2 13 -5z m1560 0 c-3 -3
-12 -4 -19 -1 -8 3 -5 6 6 6 11 1 17 -2 13 -5z m148 -9 c6 -2 -11 -4 -37 -4
-27 -1 -48 3 -48 7 0 7 62 5 85 -3z m205 6 c0 -13 -35 -17 -85 -11 l-40 4 50
7 c28 3 56 7 63 7 6 1 12 -2 12 -7z m63 2 c-7 -2 -19 -2 -25 0 -7 3 -2 5 12 5
14 0 19 -2 13 -5z m-6230 -10 c-13 -2 -33 -2 -45 0 -13 2 -3 4 22 4 25 0 35
-2 23 -4z"/>
<path d="M1925 6365 c-526 -86 -942 -474 -1050 -980 -20 -93 -29 -294 -16
-375 9 -62 10 -61 5 30 -9 167 21 383 67 472 14 28 26 38 44 38 24 0 24 0 9
-42 -34 -97 -70 -288 -55 -288 3 0 6 -60 7 -134 0 -81 4 -140 11 -148 6 -7 14
-37 17 -66 3 -29 15 -71 27 -93 11 -22 17 -44 14 -49 -3 -6 -1 -10 4 -10 6 0
10 -3 9 -7 -1 -5 4 -21 11 -38 7 -16 12 -32 11 -34 -1 -2 2 -7 8 -10 5 -3 22
-29 38 -57 77 -136 222 -301 318 -362 23 -14 50 -34 61 -43 25 -22 184 -105
240 -125 78 -29 228 -63 304 -70 42 -3 87 -8 100 -10 39 -6 266 24 338 45 115
33 146 45 198 73 27 16 65 35 83 43 18 9 35 22 38 30 4 8 10 12 15 9 16 -9 71
37 64 54 -5 13 -3 13 12 1 14 -11 13 -9 -2 12 -11 15 -24 24 -29 21 -5 -3 -6
-1 -3 5 8 13 -27 65 -38 56 -4 -5 -5 -3 -2 3 8 13 -27 67 -37 57 -4 -5 -7 -3
-6 2 4 20 0 34 -17 51 -10 10 -18 22 -19 28 -1 25 -16 54 -29 59 -8 4 -11 14
-8 25 2 10 -2 26 -11 34 -8 9 -13 18 -10 20 2 3 -2 11 -10 17 -8 7 -12 19 -9
26 3 8 -2 22 -11 30 -9 10 -16 33 -16 55 0 21 -5 42 -10 45 -6 4 -8 11 -5 16
4 5 3 15 -2 22 -4 6 -9 21 -9 32 -11 127 -18 184 -25 179 -11 -7 -3 291 9 346
6 25 16 72 22 105 7 33 22 89 33 125 11 36 21 67 22 70 4 12 26 63 45 102 11
23 20 45 20 50 0 5 16 31 35 58 19 28 32 50 28 50 -3 0 2 10 13 23 41 47 64
86 58 100 -6 17 12 32 21 17 3 -5 11 -10 17 -10 6 0 -1 9 -16 21 -14 11 -30
18 -35 14 -5 -3 -13 0 -17 6 -5 8 -3 9 6 4 9 -6 11 -4 6 4 -5 7 -15 10 -23 7
-8 -3 -11 -2 -8 4 7 12 -32 33 -47 24 -7 -4 -8 -3 -4 4 7 11 -6 17 -27 13 -5
-1 -5 4 -1 10 5 9 2 10 -9 6 -10 -3 -17 -2 -17 3 0 14 7 13 69 -16 60 -28 113
-59 229 -136 151 -99 109 -28 -58 98 -145 110 -340 199 -525 240 -101 22 -358
27 -470 9z m228 -72 c-7 -2 -21 -2 -30 0 -10 3 -4 5 12 5 17 0 24 -2 18 -5z
m-793 -277 c0 -2 -8 -10 -17 -17 -16 -13 -17 -12 -4 4 13 16 21 21 21 13z
m-370 -590 c0 -3 -4 -8 -10 -11 -5 -3 -10 -1 -10 4 0 6 5 11 10 11 6 0 10 -2
10 -4z"/>
<path d="M3960 6373 c-198 -20 -424 -106 -599 -226 -89 -62 -228 -191 -191
-178 54 19 206 84 215 92 7 5 11 0 12 -14 2 -17 0 -19 -7 -7 -5 8 -10 11 -10
5 1 -17 57 -85 64 -77 4 4 7 3 6 -3 -4 -20 0 -36 9 -31 5 3 8 -2 7 -12 0 -9 4
-16 11 -15 8 2 10 -4 6 -14 -4 -10 -2 -14 4 -10 6 4 10 -1 9 -11 0 -9 5 -16
12 -14 8 1 11 -2 8 -7 -8 -12 14 -62 25 -56 4 3 11 0 15 -6 5 -8 3 -9 -6 -4
-10 6 -12 4 -6 -11 5 -10 13 -31 18 -46 5 -16 14 -26 18 -23 5 3 12 0 16 -6 4
-8 3 -9 -4 -5 -15 9 -15 7 -1 -33 6 -17 15 -31 20 -31 4 0 6 -7 3 -15 -4 -8
-2 -15 2 -15 5 0 10 -14 10 -32 1 -18 6 -34 12 -36 6 -2 8 -10 5 -19 -4 -10
-2 -14 4 -10 6 4 10 -14 11 -45 0 -28 5 -54 9 -57 14 -11 22 -108 20 -251 0
-58 -1 -133 -1 -167 -1 -33 -4 -59 -7 -57 -8 5 -31 -135 -24 -147 4 -5 1 -9
-6 -9 -6 0 -9 -8 -6 -20 3 -11 2 -18 -3 -15 -10 6 -32 -83 -24 -97 4 -6 3 -8
-3 -5 -11 7 -35 -61 -27 -75 3 -4 0 -8 -7 -8 -7 0 -10 -3 -6 -6 3 -4 -1 -13
-9 -21 -8 -8 -12 -19 -9 -24 4 -5 2 -9 -3 -9 -11 0 -38 -60 -34 -75 2 -5 -5
-15 -14 -22 -10 -7 -15 -13 -11 -13 3 0 -5 -12 -19 -27 -19 -20 -21 -28 -12
-35 10 -6 9 -8 -3 -8 -16 0 -34 -26 -31 -42 1 -4 -7 -12 -18 -18 -26 -14 -21
-47 11 -71 13 -10 28 -19 33 -19 5 0 17 -6 25 -14 19 -16 161 -87 211 -105
232 -83 495 -94 735 -31 83 21 104 30 210 82 121 60 154 81 175 113 11 17 20
24 20 16 0 -8 3 -12 6 -8 8 7 -31 58 -40 52 -3 -3 -4 -2 -1 1 8 12 -16 45 -28
38 -7 -4 -9 -4 -5 1 9 10 -19 65 -33 65 -6 0 -8 4 -4 10 3 5 -2 18 -12 28 -10
10 -19 25 -21 33 -2 7 -9 17 -15 21 -7 4 -7 8 -2 8 6 0 3 5 -7 10 -9 6 -14 18
-11 28 2 11 -2 26 -11 34 -8 9 -12 18 -9 22 4 3 1 6 -6 6 -7 0 -9 5 -6 10 4 6
-3 27 -14 46 -12 19 -21 47 -20 62 0 26 1 26 9 5 10 -25 24 -29 129 -38 89 -7
118 -19 148 -64 30 -45 29 -37 -6 40 -44 98 -49 101 -179 97 -128 -3 -128 -4
-138 89 -4 32 -8 63 -9 70 0 7 -4 15 -8 19 -4 4 -4 18 -1 30 4 14 2 24 -4 24
-7 0 -11 27 -10 73 1 39 0 113 0 162 -1 50 5 124 13 165 8 41 16 89 19 105 2
17 11 50 20 74 9 24 14 46 11 50 -2 4 5 22 16 39 10 18 19 39 19 48 0 8 8 29
17 47 9 18 16 36 15 41 -2 5 3 16 11 25 8 9 29 43 47 76 18 33 47 80 64 105
17 25 36 54 42 65 7 11 20 19 30 17 13 -2 10 3 -10 17 -17 11 -34 17 -39 14
-6 -3 -7 -1 -3 5 7 11 -6 17 -27 13 -5 -1 -6 3 -3 8 3 5 -1 11 -9 15 -8 3 -15
0 -15 -6 0 -7 -5 -6 -15 2 -8 7 -12 17 -8 23 4 6 0 8 -9 5 -8 -4 -15 -1 -15 7
0 10 6 11 26 2 58 -26 135 -70 221 -127 80 -52 120 -71 120 -56 0 10 -171 152
-230 190 -249 164 -567 241 -870 209z m168 -80 c-10 -2 -26 -2 -35 0 -10 3 -2
5 17 5 19 0 27 -2 18 -5z"/>
<path d="M5876 6365 c-255 -42 -501 -162 -673 -330 -84 -81 -84 -81 56 -21 46
20 86 34 89 31 3 -2 11 3 19 13 13 16 13 15 4 -3 -11 -24 4 -59 21 -49 6 4 8
3 5 -4 -7 -11 56 -115 68 -112 4 1 10 -2 13 -6 4 -4 1 -4 -5 0 -17 9 -16 -4 1
-26 7 -10 16 -15 20 -11 4 4 4 -1 0 -11 -5 -13 -4 -17 4 -12 6 3 14 1 18 -5 4
-8 3 -9 -4 -5 -15 9 -15 3 -1 -28 7 -14 16 -23 20 -20 5 3 6 -3 2 -12 -5 -13
-3 -15 7 -9 8 5 11 4 7 -2 -10 -16 13 -74 26 -66 6 3 7 1 3 -5 -10 -16 15 -93
27 -85 6 3 7 1 3 -5 -7 -11 12 -91 24 -102 3 -3 5 -12 5 -20 1 -42 18 -140 25
-140 4 0 6 -73 5 -162 -3 -160 -21 -301 -51 -407 -8 -29 -13 -60 -10 -68 3 -8
2 -12 -3 -9 -9 6 -45 -94 -37 -102 3 -2 -2 -11 -10 -19 -8 -9 -13 -22 -10 -30
4 -9 1 -11 -5 -7 -7 4 -10 1 -7 -6 2 -8 -4 -22 -14 -32 -12 -12 -17 -26 -13
-38 3 -10 1 -21 -4 -25 -7 -4 -9 1 -5 12 3 10 -4 2 -14 -17 -11 -19 -18 -38
-16 -41 2 -4 -3 -10 -12 -13 -8 -3 -12 -10 -9 -16 3 -5 1 -10 -5 -10 -6 0 -9
-4 -6 -9 3 -5 -1 -11 -9 -15 -8 -3 -15 -12 -15 -20 0 -7 -7 -17 -16 -20 -8 -3
-12 -10 -9 -16 3 -6 -1 -13 -9 -16 -12 -4 -13 -11 -6 -24 17 -33 229 -150 320
-178 194 -60 319 -75 495 -61 106 9 281 49 319 74 13 9 28 15 32 13 11 -3 153
69 175 88 8 8 20 14 26 14 6 0 25 13 42 29 16 15 33 26 37 22 4 -3 2 4 -5 16
-6 12 -16 25 -23 29 -7 5 -8 3 -3 -6 5 -8 4 -11 -3 -6 -6 4 -9 13 -6 20 3 8 0
17 -7 22 -8 5 -10 3 -4 -6 5 -9 4 -11 -4 -6 -6 4 -9 11 -6 17 7 10 -35 76 -48
77 -5 0 -12 4 -15 8 -4 4 -1 4 6 0 17 -10 15 -4 -11 43 -13 23 -27 38 -31 34
-4 -4 -4 1 0 11 6 15 4 17 -6 11 -8 -5 -11 -4 -6 3 8 14 -14 63 -26 56 -5 -3
-8 0 -7 7 5 26 -12 79 -23 73 -7 -5 -8 -2 -3 6 4 7 2 15 -4 19 -6 4 -9 15 -5
25 5 12 14 16 33 12 14 -3 58 -8 96 -12 85 -7 116 -22 145 -69 12 -19 23 -35
26 -35 11 0 -60 143 -80 159 -11 9 -52 14 -133 15 l-117 1 -8 40 c-3 22 -13
58 -21 80 -11 32 -14 92 -13 275 2 208 5 245 25 325 32 128 79 261 117 337 8
15 13 29 12 30 -2 2 8 19 22 38 30 41 46 67 59 96 5 12 27 40 49 63 35 37 38
43 22 51 -10 5 -21 6 -25 2 -5 -4 -5 -1 -1 6 7 11 -5 17 -27 13 -5 -1 -6 3 -2
9 6 10 -9 15 -30 10 -5 -1 -7 2 -2 6 10 10 -71 57 -85 48 -7 -5 -8 -3 -3 6 6
10 4 12 -11 6 -14 -5 -16 -4 -8 4 8 8 35 -1 100 -33 149 -73 219 -117 209
-131 -3 -3 -2 -4 1 -2 3 3 32 -9 63 -26 l56 -31 -60 62 c-150 155 -393 283
-635 336 -106 23 -361 28 -474 10z m227 -72 c-7 -2 -21 -2 -30 0 -10 3 -4 5
12 5 17 0 24 -2 18 -5z m-664 -347 c-3 -3 -11 5 -18 17 -13 21 -12 21 5 5 10
-10 16 -20 13 -22z"/>
<path d="M7860 6365 c-201 -29 -419 -122 -590 -251 -83 -63 -183 -154 -169
-154 2 0 54 20 114 45 93 39 110 43 118 30 4 -9 14 -12 20 -9 7 4 9 4 5 -1 -9
-10 10 -47 21 -40 5 2 8 -3 7 -13 0 -9 5 -16 12 -14 8 1 11 -2 7 -8 -8 -13 39
-82 50 -72 5 4 5 2 1 -5 -7 -13 46 -125 58 -123 4 1 11 -2 14 -6 4 -4 1 -3 -7
1 -11 6 -13 4 -8 -9 4 -10 7 -20 7 -22 0 -3 4 -3 9 1 5 3 13 0 17 -6 5 -8 3
-9 -6 -4 -10 6 -12 4 -7 -9 4 -10 7 -22 7 -27 0 -6 4 -7 10 -4 5 3 9 -2 8 -12
-3 -35 2 -54 12 -48 6 3 7 -1 4 -9 -4 -9 -1 -16 6 -16 7 0 10 -6 7 -13 -6 -17
18 -113 27 -109 4 2 11 0 14 -4 4 -4 1 -4 -7 1 -11 6 -13 3 -7 -16 4 -13 9
-44 11 -69 3 -25 8 -61 11 -80 9 -48 5 -226 -6 -332 -6 -47 -7 -94 -3 -104 4
-10 2 -15 -4 -11 -12 8 -47 -138 -37 -154 4 -7 3 -9 -3 -6 -12 8 -34 -59 -26
-81 5 -11 3 -13 -7 -7 -8 5 -11 3 -8 -6 3 -8 -2 -20 -9 -27 -8 -8 -11 -23 -8
-33 4 -12 1 -21 -9 -25 -9 -3 -13 -10 -10 -15 3 -5 -1 -9 -8 -9 -10 0 -10 -2
1 -9 11 -7 10 -12 -8 -22 -25 -15 -64 -83 -54 -93 4 -3 1 -6 -5 -6 -7 0 -12
-7 -12 -15 0 -8 -4 -15 -10 -15 -5 0 -14 -10 -21 -21 -8 -15 -8 -19 0 -15 6 4
11 0 11 -9 0 -9 -5 -13 -10 -10 -13 8 -42 -14 -34 -26 3 -5 -2 -12 -11 -15
-12 -5 -13 -9 -4 -20 6 -8 16 -14 21 -14 6 0 22 -10 38 -23 34 -29 168 -99
240 -126 222 -82 482 -97 705 -40 82 21 171 51 202 69 10 5 29 15 43 20 90 36
224 132 316 225 34 34 69 65 78 68 10 4 15 11 11 16 -3 6 4 15 15 21 11 6 20
15 20 21 0 6 10 20 23 31 12 11 15 16 7 12 -8 -4 -3 4 13 19 28 27 36 43 15
31 -7 -4 -1 4 15 19 16 15 27 37 27 52 0 14 6 28 14 31 8 3 17 12 20 20 4 9 2
12 -5 8 -6 -3 1 16 15 42 14 27 26 57 26 67 0 10 6 30 13 45 29 57 50 230 44
358 -2 67 -8 128 -12 135 -5 6 -9 28 -11 48 -4 44 -42 168 -62 198 -7 12 -11
26 -8 32 8 13 -4 42 -15 35 -5 -3 -6 3 -2 12 5 13 3 15 -7 9 -9 -5 -11 -4 -6
4 8 12 -64 135 -106 181 -13 14 -18 19 -13 10 9 -13 8 -13 -7 -1 -10 7 -15 18
-12 23 9 14 -163 181 -177 172 -8 -4 -9 -3 -5 4 8 13 -28 35 -39 24 -5 -4 -5
-2 -1 5 7 13 -27 37 -38 26 -3 -3 -6 -1 -6 6 0 7 -5 9 -10 6 -6 -4 -9 -1 -8 7
2 7 -5 12 -14 12 -10 -1 -15 3 -11 9 4 7 0 8 -13 3 -10 -4 -15 -4 -11 0 9 10
-30 37 -43 29 -6 -3 -10 -2 -10 4 0 15 -59 43 -76 37 -8 -3 -12 -2 -9 3 7 13
-28 23 -51 15 -16 -5 -16 -4 -4 5 13 9 11 11 -7 11 -12 0 -24 4 -27 9 -12 19
181 -46 211 -71 7 -5 17 -7 22 -4 5 4 12 2 15 -3 3 -5 17 -12 31 -15 53 -13
136 -57 129 -68 -4 -7 -3 -8 5 -4 6 4 19 2 28 -6 13 -10 15 -10 9 0 -14 23
-129 102 -139 95 -6 -3 -7 -1 -4 5 10 15 -171 104 -287 141 -182 58 -399 75
-596 46z m223 -72 c-7 -2 -21 -2 -30 0 -10 3 -4 5 12 5 17 0 24 -2 18 -5z
m837 -348 c30 -30 52 -55 49 -55 -2 0 -29 25 -59 55 -30 30 -52 55 -49 55 2 0
29 -25 59 -55z m-1459 -1558 c-10 -9 -11 -8 -5 6 3 10 9 15 12 12 3 -3 0 -11
-7 -18z"/>
<path d="M5119 6312 c-17 -12 -19 -27 -19 -170 l0 -156 58 56 c31 30 84 77
117 103 72 57 76 61 50 48 -16 -9 -24 -6 -40 14 -29 35 -38 44 -78 77 -20 17
-34 33 -32 36 7 11 -37 5 -56 -8z"/>
<path d="M5058 5882 c-183 -245 -269 -515 -254 -796 10 -198 47 -338 131 -506
38 -76 125 -210 151 -231 31 -26 12 19 -37 86 -99 136 -153 262 -194 450 -19
84 -30 311 -16 329 11 15 31 89 31 114 0 11 4 23 9 26 4 3 7 -71 5 -164 -2
-117 0 -170 7 -170 7 0 9 -10 5 -26 -8 -30 13 -144 26 -144 5 0 6 -4 3 -10 -9
-15 27 -120 38 -113 6 3 7 1 4 -4 -9 -14 12 -75 23 -68 5 3 12 0 16 -6 4 -8 3
-9 -4 -5 -16 10 -15 1 3 -34 9 -17 20 -30 26 -30 6 0 7 -4 4 -10 -3 -5 -1 -10
5 -10 6 0 8 -5 5 -10 -3 -6 1 -13 9 -16 9 -3 14 -9 12 -13 -2 -3 8 -17 22 -31
13 -14 22 -19 18 -12 -4 6 -2 12 4 12 6 0 9 4 6 8 -3 5 5 20 17 32 12 13 23
33 24 44 2 12 12 28 22 36 11 8 21 24 23 35 2 11 9 26 16 33 6 7 13 20 13 28
1 14 4 27 9 42 1 4 2 10 1 15 0 4 4 7 9 7 6 0 10 15 10 33 0 18 5 38 12 45 7
7 8 12 4 12 -5 0 -4 6 1 13 16 19 27 90 13 82 -8 -5 -8 0 1 16 16 31 16 235
-1 343 -10 66 -41 178 -67 246 -6 16 -9 27 -11 48 -1 7 -7 10 -14 6 -6 -4 -8
-3 -4 4 8 13 -14 63 -25 56 -5 -3 -6 3 -2 12 5 13 3 15 -7 9 -9 -5 -11 -4 -6
3 7 13 -37 86 -46 76 -3 -3 -6 29 -6 71 0 42 -2 78 -4 80 -2 3 -20 -17 -40
-43z m-162 -498 c-4 -9 -9 -15 -11 -12 -3 3 -3 13 1 22 4 9 9 15 11 12 3 -3 3
-13 -1 -22z"/>
<path d="M3060 5853 c-90 -122 -171 -298 -205 -447 -67 -295 -17 -629 133
-881 56 -95 127 -188 130 -172 2 8 -23 50 -54 93 -65 91 -136 234 -154 314 -7
30 -16 64 -21 75 -14 31 -37 213 -37 292 0 39 6 83 13 96 7 14 16 44 20 68 4
23 14 56 22 73 13 30 14 30 8 4 -15 -73 -18 -148 -5 -148 8 0 10 -6 5 -17 -11
-28 -18 -153 -8 -153 4 0 9 -30 9 -68 1 -37 8 -80 15 -97 7 -16 13 -37 14 -45
2 -34 17 -80 26 -80 6 0 8 -4 5 -9 -7 -11 19 -77 34 -86 6 -4 8 -10 5 -15 -3
-5 4 -17 15 -27 11 -11 21 -28 23 -39 1 -11 12 -31 24 -44 12 -12 20 -26 18
-30 -2 -4 7 -12 21 -19 14 -6 23 -7 20 -3 -3 5 4 19 15 30 11 12 16 22 12 22
-4 0 1 7 11 15 11 8 16 15 10 15 -5 0 -3 4 4 9 7 4 15 21 17 36 1 16 10 34 19
40 8 7 13 15 9 18 -3 4 -1 7 5 7 6 0 9 7 5 15 -3 9 2 21 11 28 8 7 18 23 20
37 3 14 5 27 6 30 1 3 3 10 4 15 1 6 8 24 15 40 7 17 13 51 13 78 0 26 5 47
10 47 5 0 7 20 4 44 -3 27 -1 46 5 48 8 3 7 36 -1 113 -24 217 -38 284 -74
353 -9 18 -16 38 -14 45 3 19 -13 58 -22 52 -5 -3 -12 0 -16 6 -4 8 -3 9 4 5
18 -11 15 2 -15 55 -14 27 -40 58 -57 69 -17 11 -26 20 -21 20 6 0 10 30 10
70 0 39 -3 70 -8 70 -4 0 -30 -30 -57 -67z m134 -179 c3 -8 2 -12 -4 -9 -6 3
-10 10 -10 16 0 14 7 11 14 -7z m-267 -266 c-3 -8 -6 -5 -6 6 -1 11 2 17 5 13
3 -3 4 -12 1 -19z"/>
<path d="M7023 5868 c-87 -117 -144 -228 -187 -365 -47 -149 -51 -181 -51
-373 1 -167 3 -195 27 -286 43 -166 141 -367 233 -476 47 -56 27 0 -30 81 -85
122 -164 304 -169 389 0 12 -4 22 -8 22 -4 0 -7 8 -6 18 0 9 -5 41 -11 71 -13
65 -15 278 -2 286 6 3 13 26 17 52 4 25 13 58 21 72 l15 26 -6 -35 c-17 -111
-18 -130 -8 -130 6 0 8 -15 5 -37 -11 -78 1 -263 18 -263 6 0 7 -5 4 -10 -10
-16 15 -111 27 -104 6 4 8 -2 3 -16 -4 -13 -3 -20 2 -17 5 4 10 -8 10 -25 0
-18 5 -34 11 -36 7 -2 10 -7 7 -12 -8 -13 17 -60 28 -53 6 3 7 1 3 -5 -8 -14
20 -72 35 -72 6 0 7 -4 4 -10 -3 -5 7 -22 22 -37 15 -14 22 -23 14 -18 -9 5
-12 4 -8 -3 8 -12 24 -11 55 6 12 7 20 18 16 23 -3 6 3 19 15 30 12 11 21 27
21 36 0 9 8 22 18 30 11 10 12 12 2 8 -13 -6 -13 -5 0 7 8 7 16 20 17 28 1 8
13 46 28 84 46 123 65 233 65 379 -1 146 -16 238 -61 361 -15 44 -26 83 -23
88 3 4 1 8 -3 8 -5 0 -10 10 -10 22 -1 13 -9 28 -17 34 -9 6 -13 14 -9 17 3 4
1 7 -5 7 -7 0 -11 3 -11 8 3 20 -2 32 -13 26 -7 -4 -8 -3 -4 4 4 7 -5 29 -19
49 -20 30 -25 50 -25 100 0 35 -4 63 -9 63 -5 0 -26 -24 -48 -52z m68 -105
c11 -15 11 -16 -1 -6 -10 9 -17 10 -27 1 -11 -8 -12 -7 -7 6 8 21 18 20 35 -1z
m-204 -435 c-3 -8 -6 -5 -6 6 -1 11 2 17 5 13 3 -3 4 -12 1 -19z"/>
<path d="M870 4914 c0 -16 5 -36 10 -44 6 -10 7 -2 3 25 -7 49 -13 58 -13 19z"/>
<path d="M640 4718 c0 -5 6 -8 13 -9 6 0 21 -3 32 -6 11 -2 42 -6 69 -8 27 -2
52 -9 56 -16 4 -6 12 -9 17 -6 6 4 29 -8 53 -25 l42 -31 -21 41 c-12 23 -29
46 -39 51 -21 11 -222 19 -222 9z"/>
<path d="M2610 4726 c0 -2 8 -12 18 -23 20 -24 111 -52 146 -46 36 7 94 -15
113 -43 27 -41 26 -19 -1 35 -38 73 -53 80 -174 80 -56 0 -102 -2 -102 -3z"/>
<path d="M940 4675 c0 -5 5 -17 10 -25 5 -8 10 -10 10 -5 0 6 -5 17 -10 25 -5
8 -10 11 -10 5z"/>
<path d="M1010 4530 c6 -11 13 -20 16 -20 2 0 0 9 -6 20 -6 11 -13 20 -16 20
-2 0 0 -9 6 -20z"/>
<path d="M1040 4481 c0 -6 4 -13 10 -16 6 -3 7 1 4 9 -7 18 -14 21 -14 7z"/>
<path d="M2885 4144 c-159 -103 -328 -174 -497 -210 -115 -25 -378 -25 -503 0
-74 15 -234 63 -330 100 -11 5 -5 -2 14 -14 19 -12 42 -23 50 -25 9 -2 37 -13
63 -24 109 -49 234 -73 413 -78 148 -4 185 -2 275 16 217 44 355 102 517 217
53 38 83 65 71 64 -2 0 -34 -21 -73 -46z"/>
<path d="M6814 4133 c-239 -152 -453 -216 -724 -215 -164 0 -278 17 -420 61
-51 17 -97 28 -102 25 -4 -3 -8 0 -8 5 0 6 -8 11 -17 11 -16 -1 -16 -2 2 -16
11 -8 25 -12 32 -10 7 3 13 2 13 -2 0 -5 35 -20 78 -35 263 -91 563 -91 840
-1 132 43 345 162 392 219 20 24 10 19 -86 -42z"/>
<path d="M8808 4141 c-239 -155 -462 -223 -738 -223 -182 1 -322 23 -459 73
-29 11 -56 18 -59 15 -2 -3 -11 2 -19 10 -9 8 -18 12 -21 9 -3 -3 -1 -10 4
-15 20 -20 199 -78 307 -100 95 -20 130 -22 280 -17 151 4 187 8 289 35 136
36 295 108 402 182 67 46 107 80 94 80 -2 0 -38 -22 -80 -49z"/>
<path d="M4845 4133 c-144 -93 -271 -148 -445 -191 -93 -23 -125 -26 -275 -26
-204 0 -341 24 -510 89 -18 7 -19 6 -4 -9 21 -23 133 -60 256 -85 178 -37 416
-27 603 25 131 36 282 109 387 185 72 52 67 48 62 53 -2 3 -36 -16 -74 -41z"/>
<path d="M3470 4061 c0 -5 7 -12 16 -15 14 -5 15 -4 4 9 -14 17 -20 19 -20 6z"/>
<path d="M7430 4063 c0 -9 40 -36 45 -31 2 2 -8 11 -21 21 -13 10 -24 14 -24
10z"/>
<path d="M5465 4047 c29 -20 55 -28 55 -17 0 6 -9 10 -20 10 -11 0 -20 5 -20
10 0 6 -8 10 -17 10 -15 0 -15 -2 2 -13z"/>
<path d="M3510 4036 c0 -2 7 -6 15 -10 8 -3 15 -1 15 4 0 6 -7 10 -15 10 -8 0
-15 -2 -15 -4z"/>
<path d="M3550 4021 c0 -5 7 -11 15 -15 8 -3 15 -1 15 3 0 5 -7 11 -15 15 -8
3 -15 1 -15 -3z"/>
</g>
</svg>
